# Blender 4.2.0
# www.blender.org
mtllib edge.mtl
o Cube
v 1.000000 -0.700000 1.000000
v 1.000000 -1.000000 0.700000
v 1.000000 -0.792705 0.985317
v 1.000000 -0.876336 0.942705
v 1.000000 -0.942705 0.876336
v 1.000000 -0.985317 0.792705
v 0.700000 -1.000000 -1.000000
v 1.000000 -1.000000 -0.700000
v 0.792705 -1.000000 -0.985317
v 0.876336 -1.000000 -0.942705
v 0.942705 -1.000000 -0.876336
v 0.985317 -1.000000 -0.792705
v -1.000000 -1.000000 0.700000
v -1.000000 -0.700000 1.000000
v -1.000000 -0.985317 0.792705
v -1.000000 -0.942705 0.876336
v -1.000000 -0.876336 0.942705
v -1.000000 -0.792705 0.985317
v -1.000000 -1.000000 -0.700000
v -0.700000 -1.000000 -1.000000
v -0.985317 -1.000000 -0.792705
v -0.942705 -1.000000 -0.876336
v -0.876336 -1.000000 -0.942705
v -0.792705 -1.000000 -0.985317
v 1.000000 0.700000 1.000000
v 0.700000 1.000000 1.000000
v 0.985317 0.792705 1.000000
v 0.942705 0.876336 1.000000
v 0.876336 0.942705 1.000000
v 0.792705 0.985317 1.000000
v 1.000000 0.700000 -0.700000
v 0.700000 1.000000 -1.000000
v 0.985317 0.792705 -0.792705
v 0.942705 0.876336 -0.876336
v 0.876336 0.942705 -0.942705
v 0.792705 0.985317 -0.985317
v -0.700000 1.000000 1.000000
v -1.000000 0.700000 1.000000
v -0.792705 0.985317 1.000000
v -0.876336 0.942705 1.000000
v -0.942705 0.876336 1.000000
v -0.985317 0.792705 1.000000
v -1.000000 0.700000 -0.700000
v -0.700000 1.000000 -1.000000
v -0.985317 0.792705 -0.792705
v -0.942705 0.876336 -0.876336
v -0.876336 0.942705 -0.942705
v -0.792705 0.985317 -0.985317
v 0.700000 -1.000000 -0.700000
v -0.700000 -1.000000 -0.700000
v -0.700000 0.700000 1.000000
v 0.700000 0.700000 1.000000
vn -0.0000 -0.0000 -1.0000
vn -0.0000 1.0000 -0.0000
vn -1.0000 -0.0000 -0.0000
vn -0.0000 -0.0000 1.0000
vn -0.0000 -1.0000 -0.0000
vn 0.1564 -0.0000 -0.9877
vn 0.4540 -0.0000 -0.8910
vn 0.7071 -0.0000 -0.7071
vn 0.8910 -0.0000 -0.4540
vn 0.9877 -0.0000 -0.1564
vn -0.9877 0.1564 -0.0000
vn -0.8910 0.4540 -0.0000
vn -0.7071 0.7071 -0.0000
vn -0.4540 0.8910 -0.0000
vn -0.1564 0.9877 -0.0000
vn 0.9877 0.1564 -0.0000
vn 0.8910 0.4540 -0.0000
vn 0.7071 0.7071 -0.0000
vn 0.4540 0.8910 -0.0000
vn 0.1564 0.9877 -0.0000
vn -0.0000 -0.1564 0.9877
vn -0.0000 -0.4540 0.8910
vn -0.0000 -0.7071 0.7071
vn -0.0000 -0.8910 0.4540
vn -0.0000 -0.9877 0.1564
vn -0.1564 -0.0000 -0.9877
vn -0.4540 -0.0000 -0.8910
vn -0.7071 -0.0000 -0.7071
vn -0.8910 -0.0000 -0.4540
vn -0.9877 -0.0000 -0.1564
vn 1.0000 -0.0000 -0.0000
vt 0.375000 0.537500
vt 0.125000 0.712500
vt 0.125000 0.537500
vt 0.625000 0.037500
vt 0.375000 0.212500
vt 0.375000 0.037500
vt 0.587500 0.750000
vt 0.625000 0.787500
vt 0.412500 0.962500
vt 0.837500 0.539107
vt 0.837500 0.715211
vt 0.662500 0.750000
vt 0.412500 0.536932
vt 0.375000 0.712500
vt 0.375000 0.537500
vt 0.126835 0.525912
vt 0.375000 0.525912
vt 0.132162 0.515458
vt 0.375000 0.515458
vt 0.140458 0.500000
vt 0.375000 0.500000
vt 0.400912 0.275912
vt 0.400912 0.500000
vt 0.412500 0.287500
vt 0.412500 0.500000
vt 0.625000 0.974088
vt 0.400912 0.974088
vt 0.625000 1.000000
vt 0.390458 1.000000
vt 0.390458 0.000000
vt 0.625000 0.015458
vt 0.382162 0.015458
vt 0.625000 0.025912
vt 0.376835 0.025912
vt 0.625000 0.275912
vt 0.625000 0.287500
vt 0.625000 0.265458
vt 0.390458 0.265458
vt 0.625000 0.234542
vt 0.382162 0.234542
vt 0.625000 0.224088
vt 0.376835 0.224088
vt 0.625000 0.212500
vt 0.650912 0.500000
vt 0.662500 0.500000
vt 0.650912 0.750000
vt 0.640458 0.500000
vt 0.640458 0.750000
vt 0.609542 0.500000
vt 0.609542 0.750000
vt 0.599088 0.500000
vt 0.599088 0.750000
vt 0.587500 0.500000
vt 0.375000 0.712500
vt 0.126835 0.724088
vt 0.375000 0.724088
vt 0.132162 0.734542
vt 0.375000 0.734542
vt 0.140458 0.750000
vt 0.375000 0.750000
vt 0.375000 0.984542
vt 0.400912 0.750000
vt 0.623165 0.474088
vt 0.609542 0.492838
vt 0.587500 0.750000
vt 0.400912 0.501835
vt 0.390458 0.507162
vt 0.382162 0.515458
vt 0.376835 0.525912
vt 0.412500 0.712015
vt 0.376835 0.724088
vt 0.382162 0.734542
vt 0.390458 0.742838
vt 0.400912 0.748165
vt 0.412500 0.750000
vt 0.837500 0.750000
vt 0.849088 0.748165
vt 0.875000 0.537500
vt 0.875000 0.712500
vt 0.873165 0.525912
vt 0.867838 0.515458
vt 0.859542 0.507162
vt 0.849088 0.501835
vt 0.837500 0.500000
vt 0.859542 0.742838
vt 0.867838 0.734542
vt 0.873165 0.724088
vt 0.412500 0.750000
vt 0.599088 0.751835
vt 0.609542 0.757162
vt 0.617838 0.765458
vt 0.623165 0.775912
vt 0.625000 0.962500
vt 0.375000 0.265458
vt 0.625000 0.000000
vt 0.625000 0.462500
vt 0.617838 0.484542
vt 0.599088 0.498165
s 0
usemtl Material
f 7/1/1 44/2/1 32/3/1
f 37/4/2 32/5/2 44/6/2
f 13/7/3 14/8/3 43/9/3
f 52/10/4 51/11/4 14/12/4
f 49/13/5 20/14/5 7/15/5
f 7/1/6 36/16/6 9/17/6
f 9/17/7 35/18/7 10/19/7
f 10/19/8 34/20/8 11/21/8
f 11/21/9 33/22/9 12/23/9
f 12/23/10 31/24/10 8/25/10
f 43/9/11 42/26/11 45/27/11
f 45/27/12 41/28/12 46/29/12
f 46/30/13 40/31/13 47/32/13
f 47/32/14 39/33/14 48/34/14
f 48/34/15 37/4/15 44/6/15
f 31/24/16 27/35/16 25/36/16
f 33/22/17 28/37/17 27/35/17
f 34/38/18 29/39/18 28/37/18
f 35/40/19 30/41/19 29/39/19
f 36/42/20 26/43/20 30/41/20
f 14/12/21 3/44/21 1/45/21
f 18/46/22 4/47/22 3/44/22
f 17/48/23 5/49/23 4/47/23
f 16/50/24 6/51/24 5/49/24
f 15/52/25 2/53/25 6/51/25
f 20/54/26 48/55/26 44/2/26
f 24/56/27 47/57/27 48/55/27
f 23/58/28 46/59/28 47/57/28
f 22/60/29 45/27/29 46/61/29
f 21/62/30 43/9/30 45/27/30
f 3/63/31 5/64/31 2/53/31
f 49/13/5 2/53/5 13/65/5
f 49/13/5 12/66/5 8/25/5
f 12/66/5 49/13/5 11/67/5
f 11/67/5 49/13/5 10/68/5
f 10/68/5 49/13/5 9/69/5
f 9/69/5 49/13/5 7/15/5
f 20/14/5 50/70/5 24/71/5
f 24/71/5 50/70/5 23/72/5
f 23/72/5 50/70/5 22/73/5
f 22/73/5 50/70/5 21/74/5
f 21/74/5 50/70/5 19/75/5
f 7/1/1 20/54/1 44/2/1
f 38/76/4 51/11/4 42/77/4
f 51/11/4 26/78/4 37/79/4
f 26/78/4 52/10/4 30/80/4
f 30/80/4 52/10/4 29/81/4
f 29/81/4 52/10/4 28/82/4
f 28/82/4 52/10/4 27/83/4
f 27/83/4 52/10/4 25/84/4
f 42/77/4 51/11/4 41/85/4
f 41/85/4 51/11/4 40/86/4
f 40/86/4 51/11/4 39/87/4
f 39/87/4 51/11/4 37/79/4
f 37/4/2 26/43/2 32/5/2
f 43/9/3 19/88/3 13/7/3
f 13/7/3 15/89/3 16/90/3
f 16/90/3 17/91/3 13/7/3
f 17/91/3 18/92/3 13/7/3
f 18/92/3 14/8/3 13/7/3
f 14/8/3 38/93/3 43/9/3
f 14/12/4 1/45/4 52/10/4
f 1/45/4 25/84/4 52/10/4
f 51/11/4 38/76/4 14/12/4
f 49/13/5 50/70/5 20/14/5
f 7/1/6 32/3/6 36/16/6
f 9/17/7 36/16/7 35/18/7
f 10/19/8 35/18/8 34/20/8
f 11/21/9 34/94/9 33/22/9
f 12/23/10 33/22/10 31/24/10
f 43/9/11 38/93/11 42/26/11
f 45/27/12 42/26/12 41/28/12
f 46/30/13 41/95/13 40/31/13
f 47/32/14 40/31/14 39/33/14
f 48/34/15 39/33/15 37/4/15
f 31/24/16 33/22/16 27/35/16
f 33/22/17 34/38/17 28/37/17
f 34/38/18 35/40/18 29/39/18
f 35/40/19 36/42/19 30/41/19
f 36/42/20 32/5/20 26/43/20
f 14/12/21 18/46/21 3/44/21
f 18/46/22 17/48/22 4/47/22
f 17/48/23 16/50/23 5/49/23
f 16/50/24 15/52/24 6/51/24
f 15/52/25 13/65/25 2/53/25
f 20/54/26 24/56/26 48/55/26
f 24/56/27 23/58/27 47/57/27
f 23/58/28 22/60/28 46/59/28
f 22/60/29 21/62/29 45/27/29
f 21/62/30 19/88/30 43/9/30
f 8/25/31 31/24/31 2/53/31
f 31/24/31 25/36/31 1/96/31
f 2/53/31 31/24/31 1/96/31
f 1/96/31 3/63/31 2/53/31
f 3/63/31 4/97/31 5/64/31
f 5/64/31 6/98/31 2/53/31
f 13/65/5 19/75/5 50/70/5
f 49/13/5 8/25/5 2/53/5
f 13/65/5 50/70/5 49/13/5
f 51/11/4 52/10/4 26/78/4
